HIERARCHY
ROOT joint_Root
{
	OFFSET 0.0 0.0 0.0
	CHANNELS 6 Xposition Yposition Zposition Zrotation Xrotation Yrotation 
	JOINT Hips
	{
		OFFSET -0.726466 93.3139 -2.00062
		CHANNELS 6 Xposition Yposition Zposition Zrotation Xrotation Yrotation 
		JOINT Spine
		{
			OFFSET 15.7357 0.0 0.0
			CHANNELS 6 Xposition Yposition Zposition Zrotation Xrotation Yrotation 
			JOINT Chest
			{
				OFFSET 8.98455 -0.406207 0.0
				CHANNELS 6 Xposition Yposition Zposition Zrotation Xrotation Yrotation 
				JOINT Neck
				{
					OFFSET 16.3773 0.0 0.0
					CHANNELS 6 Xposition Yposition Zposition Zrotation Xrotation Yrotation 
					JOINT Head
					{
						OFFSET 6.45672 0.0 0.0
						CHANNELS 6 Xposition Yposition Zposition Zrotation Xrotation Yrotation 
						End Site
						{
							OFFSET 0.0 0.0 0.0
						}
					}
				}
				JOINT Shoulder_L
				{
					OFFSET 12.9942 -0.242716 4.98039
					CHANNELS 6 Xposition Yposition Zposition Zrotation Xrotation Yrotation 
					JOINT UpperArm_L
					{
						OFFSET 5.34809 0.0 0.0
						CHANNELS 6 Xposition Yposition Zposition Zrotation Xrotation Yrotation 
						JOINT LowerArm_L
						{
							OFFSET 24.3286 1.87007e-05 0.0
							CHANNELS 6 Xposition Yposition Zposition Zrotation Xrotation Yrotation 
							JOINT Hand_L
							{
								OFFSET 22.2916 0.0 0.0
								CHANNELS 6 Xposition Yposition Zposition Zrotation Xrotation Yrotation 
								End Site
								{
									OFFSET 0.0 0.0 0.0
								}
							}
						}
					}
				}
				JOINT Shoulder_R
				{
					OFFSET 12.9945 -0.242716 -4.98039
					CHANNELS 6 Xposition Yposition Zposition Zrotation Xrotation Yrotation 
					JOINT UpperArm_R
					{
						OFFSET -5.34813 0.0 0.0
						CHANNELS 6 Xposition Yposition Zposition Zrotation Xrotation Yrotation 
						JOINT LowerArm_R
						{
							OFFSET -24.3289 0.000322201 0.0
							CHANNELS 6 Xposition Yposition Zposition Zrotation Xrotation Yrotation 
							JOINT Hand_R
							{
								OFFSET -22.2915 -0.000108084 0.0
								CHANNELS 6 Xposition Yposition Zposition Zrotation Xrotation Yrotation 
								End Site
								{
									OFFSET 0.0 0.0 0.0
								}
							}
						}
					}
				}
			}
		}
		JOINT UpperLeg_L
		{
			OFFSET -2.19248 -6.46944 0.0
			CHANNELS 6 Xposition Yposition Zposition Zrotation Xrotation Yrotation 
			JOINT LowerLeg_L
			{
				OFFSET 39.0811 0.0 -1.23785e-05
				CHANNELS 6 Xposition Yposition Zposition Zrotation Xrotation Yrotation 
				JOINT Foot_L
				{
					OFFSET 40.9854 0.0 -1.26872e-05
					CHANNELS 6 Xposition Yposition Zposition Zrotation Xrotation Yrotation 
					JOINT Toes_L
					{
						OFFSET 11.7543 0.0 0.0
						CHANNELS 6 Xposition Yposition Zposition Zrotation Xrotation Yrotation 
						End Site
						{
							OFFSET 0.0 0.0 0.0
						}
					}
				}
			}
		}
		JOINT UpperLeg_R
		{
			OFFSET -2.19251 6.46944 0.0
			CHANNELS 6 Xposition Yposition Zposition Zrotation Xrotation Yrotation 
			JOINT LowerLeg_R
			{
				OFFSET -39.0811 -0.00228153 -0.0401928
				CHANNELS 6 Xposition Yposition Zposition Zrotation Xrotation Yrotation 
				JOINT Foot_R
				{
					OFFSET -40.9854 0.0 0.0
					CHANNELS 6 Xposition Yposition Zposition Zrotation Xrotation Yrotation 
					JOINT Toes_R
					{
						OFFSET -11.7543 0.0 0.0
						CHANNELS 6 Xposition Yposition Zposition Zrotation Xrotation Yrotation 
						End Site
						{
							OFFSET 0.0 0.0 0.0
						}
					}
				}
			}
		}
	}
}
MOTION
Frames:	8
Frame Time:	0.0333333
0.000000 0.000000 0.000000 0.000000 0.000000 -0.000000 132.664000 89.026800 134.272000 90.173100 -28.492000 6.675620 15.735700 0.000005 -0.000001 79.414800 82.871700 -77.426500 8.984550 -0.406207 -0.000000 6.302070 -2.636740 4.117890 16.377300 -0.000001 -0.000001 3.217110 -15.371700 3.610570 6.456720 -0.000001 -0.000000 3.993860 -21.681500 5.277700 12.994200 -0.242716 4.980390 -89.511900 -1.597750 -73.011200 5.348090 -0.000007 -0.000001 -70.460200 35.343800 -11.604300 24.328600 0.000019 0.000005 1.812990 3.518350 -27.300000 22.291600 -0.000001 0.000005 2.920100 5.494770 -6.320380 12.994500 -0.242716 -4.980390 87.759900 6.263950 -70.276400 -5.348130 -0.000001 -0.000004 -68.962300 28.369800 -14.404600 -24.328900 0.000322 -0.000009 2.161780 7.374440 -16.404500 -22.291500 -0.000108 -0.000004 9.639360 5.376620 -2.189920 -2.192480 -6.469440 -0.000000 -172.306000 -6.276610 -10.282100 39.081100 -0.000007 -0.000012 -0.071182 0.023706 71.585000 40.985400 -0.000006 -0.000013 -2.393210 -2.370040 -45.621100 11.754300 -0.000000 0.000003 -0.007443 -0.083429 -19.973600 -2.192510 6.469440 -0.000001 -167.285000 12.606600 170.462000 -39.081100 -0.002282 -0.040193 0.115201 -0.190183 30.471900 -40.985400 0.000008 0.000006 18.962500 -9.418660 -66.235800 -11.754300 -0.000006 -0.000006 -0.013413 -0.127583 -21.776200
0.000000 0.000000 0.000000 0.000000 0.000000 -0.000000 131.042000 89.297000 136.853000 91.222200 -33.018400 7.141210 15.735700 0.000005 -0.000001 84.779800 82.927200 -83.308000 8.984550 -0.406207 -0.000000 6.340670 -1.301550 3.012550 16.377300 -0.000001 -0.000001 3.378930 -14.558600 3.910890 6.456720 -0.000001 -0.000000 4.141600 -21.724300 5.427930 12.994200 -0.242716 4.980390 -89.376000 -1.934510 -72.118500 5.348090 -0.000007 -0.000001 -73.332500 36.309200 -7.797040 24.328600 0.000019 0.000005 3.563850 7.589400 -25.252800 22.291600 -0.000001 0.000005 1.263970 5.481170 -5.788860 12.994500 -0.242716 -4.980390 87.943400 6.052750 -71.194000 -5.348130 -0.000001 -0.000004 -68.091800 32.715300 -18.111100 -24.328900 0.000322 -0.000009 2.130950 5.688970 -20.587200 -22.291500 -0.000108 -0.000004 10.281500 5.402460 -3.017480 -2.192480 -6.469440 -0.000000 -173.766000 -5.022910 -13.854300 39.081100 -0.000007 -0.000012 -0.125759 0.038680 72.906300 40.985400 -0.000006 -0.000013 -1.012800 -5.160190 -47.244600 11.754300 -0.000000 0.000003 -0.006900 -0.078809 -19.785000 -2.192510 6.469440 -0.000001 -168.522000 10.601600 173.792000 -39.081100 -0.002282 -0.040193 0.121556 -0.208256 29.589100 -40.985400 0.000008 0.000006 18.906700 -7.207710 -68.124400 -11.754300 -0.000006 -0.000006 -0.012797 -0.123465 -21.607400
0.000000 0.000000 0.000000 0.000000 0.000000 -0.000000 129.531000 89.599200 139.229000 92.270300 -37.394000 7.324800 15.735700 0.000005 -0.000001 89.474800 83.082800 -88.449900 8.984550 -0.406207 -0.000000 6.069920 -0.141630 2.054960 16.377300 -0.000001 -0.000001 3.460650 -13.793800 3.915610 6.456720 -0.000001 -0.000000 4.159680 -21.593400 5.068970 12.994200 -0.242716 4.980390 -89.255000 -2.214380 -71.401100 5.348090 -0.000007 -0.000001 -76.807200 34.967800 -3.499050 24.328600 0.000019 0.000005 3.824980 9.062640 -22.998600 22.291600 -0.000001 0.000005 0.217947 5.461770 -5.062080 12.994500 -0.242716 -4.980390 88.197700 5.540170 -71.948300 -5.348130 -0.000001 -0.000004 -66.296900 37.252300 -22.688600 -24.328900 0.000322 -0.000009 2.258770 5.008980 -24.318700 -22.291500 -0.000108 -0.000004 10.566800 5.412880 -3.360340 -2.192480 -6.469440 -0.000000 -174.972000 -2.950390 -16.996800 39.081100 -0.000007 -0.000012 -0.154232 0.052255 71.285400 40.985400 -0.000006 -0.000013 1.410910 -6.370510 -49.803000 11.754300 -0.000000 0.000003 -0.007536 -0.084208 -20.005400 -2.192510 6.469440 -0.000001 -169.796000 8.908110 176.789000 -39.081100 -0.002282 -0.040193 0.110768 -0.201774 28.039200 -40.985400 0.000008 0.000006 19.064200 -4.683540 -69.581900 -11.754300 -0.000006 -0.000006 -0.011850 -0.116977 -21.341600
0.000000 0.000000 0.000000 0.000000 0.000000 -0.000000 128.074000 89.951700 141.632000 93.511400 -41.650300 7.759260 15.735700 0.000005 -0.000001 93.786000 83.141600 -93.204100 8.984550 -0.406207 -0.000000 5.917170 0.893983 1.116230 16.377300 -0.000001 -0.000001 3.355850 -13.070300 3.712590 6.456720 -0.000001 -0.000000 3.967340 -21.362700 4.644150 12.994200 -0.242716 4.980390 -89.220500 -2.219340 -70.641100 5.348090 -0.000007 -0.000001 -79.399200 32.495100 -0.023723 24.328600 0.000019 0.000005 3.056050 8.232720 -20.445400 22.291600 -0.000001 0.000005 -0.433741 5.440540 -4.304090 12.994500 -0.242716 -4.980390 88.377200 5.192270 -72.617600 -5.348130 -0.000001 -0.000004 -63.386700 41.127200 -27.960800 -24.328900 0.000322 -0.000009 2.520680 4.807250 -27.726300 -22.291500 -0.000108 -0.000004 10.298700 5.423420 -3.714710 -2.192480 -6.469440 -0.000000 -175.777000 -0.102619 -18.941300 39.081100 -0.000007 -0.000012 -0.134254 0.058440 66.479000 40.985400 -0.000006 -0.000013 2.246240 -7.055330 -52.483900 11.754300 -0.000000 0.000003 -0.005944 -0.070332 -19.439200 -2.192510 6.469440 -0.000001 -171.432000 7.425950 179.888000 -39.081100 -0.002282 -0.040193 0.085790 -0.168884 26.030100 -40.985400 0.000008 0.000006 19.136400 -1.880670 -70.666100 -11.754300 -0.000006 -0.000006 -0.011061 -0.111405 -21.113400
0.000000 0.000000 0.000000 0.000000 0.000000 -0.000000 126.604000 90.227900 143.997000 94.648100 -45.705800 8.123400 15.735700 0.000005 -0.000001 97.870700 83.134100 -97.640400 8.984550 -0.406207 -0.000000 5.835090 1.871720 0.364783 16.377300 -0.000001 -0.000001 3.061340 -12.459900 3.296880 6.456720 -0.000001 -0.000000 3.560690 -21.193400 4.351750 12.994200 -0.242716 4.980390 -89.220300 -2.133710 -69.919700 5.348090 -0.000007 -0.000001 -81.089200 29.810600 2.253560 24.328600 0.000019 0.000005 2.781740 8.647410 -17.910300 22.291600 -0.000001 0.000005 -0.461350 5.424120 -3.738740 12.994500 -0.242716 -4.980390 88.534900 4.860740 -73.204800 -5.348130 -0.000001 -0.000004 -59.870200 44.094700 -33.380000 -24.328900 0.000322 -0.000009 2.493600 4.128590 -31.183700 -22.291500 -0.000108 -0.000004 9.993800 5.424460 -3.749430 -2.192480 -6.469440 -0.000000 -175.880000 2.840240 -19.889200 39.081100 -0.000007 -0.000012 -0.086399 0.052315 58.807200 40.985400 -0.000006 -0.000013 3.392570 -7.509480 -54.396700 11.754300 -0.000000 0.000003 -0.007122 -0.080720 -19.863000 -2.192510 6.469440 -0.000001 -172.995000 5.950920 -177.094000 -39.081100 -0.002282 -0.040193 0.055890 -0.119955 23.667400 -40.985400 0.000008 0.000006 19.232400 0.772956 -71.557900 -11.754300 -0.000006 -0.000006 -0.009851 -0.102522 -20.750000
0.000000 0.000000 0.000000 0.000000 0.000000 -0.000000 125.181000 90.332500 146.304000 95.596600 -49.250600 8.206830 15.735700 0.000005 -0.000001 101.005000 83.190900 -101.034000 8.984550 -0.406207 -0.000000 5.606980 2.593960 -0.184787 16.377300 -0.000001 -0.000001 2.740140 -11.973400 2.738220 6.456720 -0.000001 -0.000000 3.122020 -20.987100 4.096660 12.994200 -0.242716 4.980390 -89.196800 -2.134380 -69.371100 5.348090 -0.000007 -0.000001 -82.148500 27.494400 3.561680 24.328600 0.000019 0.000005 2.928780 10.601900 -15.542700 22.291600 -0.000001 0.000005 -0.117546 5.406320 -3.145900 12.994500 -0.242716 -4.980390 88.689100 4.483740 -73.684900 -5.348130 -0.000001 -0.000004 -56.246800 46.255200 -38.411400 -24.328900 0.000322 -0.000009 2.511400 3.665000 -34.467700 -22.291500 -0.000108 -0.000004 9.791030 5.433190 -4.049210 -2.192480 -6.469440 -0.000000 -175.301000 5.676300 -20.340600 39.081100 -0.000007 -0.000012 -0.033792 0.029430 48.949400 40.985400 -0.000006 -0.000013 3.820460 -8.258720 -56.204600 11.754300 -0.000000 0.000003 -0.006232 -0.072937 -19.545400 -2.192510 6.469440 -0.000001 -174.506000 4.865510 -174.843000 -39.081100 -0.002282 -0.040193 0.032955 -0.073548 21.947800 -40.985400 0.000008 0.000006 19.239100 3.313420 -72.506500 -11.754300 -0.000006 -0.000006 -0.010218 -0.105258 -20.861900
0.000000 0.000000 0.000000 0.000000 0.000000 -0.000000 123.728000 90.176300 148.556000 95.936800 -52.051400 7.448900 15.735700 0.000005 -0.000001 103.236000 83.419600 -103.391000 8.984550 -0.406207 -0.000000 5.054800 3.010900 -0.442443 16.377300 -0.000001 -0.000001 2.382250 -11.628700 2.358390 6.456720 -0.000001 -0.000000 2.740720 -20.775800 3.559050 12.994200 -0.242716 4.980390 -89.151200 -2.223230 -69.098400 5.348090 -0.000007 -0.000001 -82.590500 25.874500 4.101260 24.328600 0.000019 0.000005 2.956370 12.377300 -13.547700 22.291600 -0.000001 0.000005 0.040343 5.382700 -2.383530 12.994500 -0.242716 -4.980390 88.816600 4.117360 -73.949500 -5.348130 -0.000001 -0.000004 -53.241200 47.736400 -42.385100 -24.328900 0.000322 -0.000009 2.732140 3.556240 -37.584800 -22.291500 -0.000108 -0.000004 9.886890 5.437950 -4.213870 -2.192480 -6.469440 -0.000000 -173.961000 7.835500 -20.782600 39.081100 -0.000007 -0.000012 0.001811 -0.002368 37.387900 40.985400 -0.000006 -0.000013 3.978810 -8.641430 -56.486100 11.754300 -0.000000 0.000003 -0.006614 -0.076325 -19.683600 -2.192510 6.469440 -0.000001 -175.627000 4.175860 -173.678000 -39.081100 -0.002282 -0.040193 0.021464 -0.046605 21.272700 -40.985400 0.000008 0.000006 19.185800 5.495610 -73.697200 -11.754300 -0.000006 -0.000006 -0.009662 -0.101097 -20.691700
0.000000 0.000000 0.000000 0.000000 0.000000 -0.000000 122.165000 89.897100 150.809000 95.403700 -54.175400 5.988410 15.735700 0.000005 -0.000001 104.591000 83.699800 -104.711000 8.984550 -0.406207 -0.000000 4.436930 3.172360 -0.363928 16.377300 -0.000001 -0.000001 2.034230 -11.361000 2.038230 6.456720 -0.000001 -0.000000 2.494000 -20.477500 3.147710 12.994200 -0.242716 4.980390 -89.092200 -2.365500 -68.996600 5.348090 -0.000007 -0.000001 -82.482400 24.977800 4.035470 24.328600 0.000019 0.000005 2.808930 13.158600 -12.162600 22.291600 -0.000001 0.000005 0.108883 5.356110 -1.561790 12.994500 -0.242716 -4.980390 88.891300 3.872980 -74.011900 -5.348130 -0.000001 -0.000004 -51.172100 48.723400 -44.798800 -24.328900 0.000322 -0.000009 2.966030 3.474370 -40.541000 -22.291500 -0.000108 -0.000004 10.038400 5.440060 -4.287890 -2.192480 -6.469440 -0.000000 -172.380000 7.928010 -20.847200 39.081100 -0.000007 -0.000012 -0.000794 0.001720 24.789200 40.985400 -0.000006 -0.000013 2.995780 -7.653770 -55.561600 11.754300 -0.000000 0.000003 -0.006640 -0.076548 -19.692700 -2.192510 6.469440 -0.000001 -176.289000 3.995000 -172.891000 -39.081100 -0.002282 -0.040193 0.017281 -0.036106 21.141100 -40.985400 0.000008 0.000006 19.214600 7.338120 -74.414600 -11.754300 -0.000006 -0.000006 -0.130105 -0.234226 -21.098900
